<svg version="1.1" xmlns="http://www.w3.org/2000/svg" xmlns:xlink="http://www.w3.org/1999/xlink" width="58.14209" height="35.96972" viewBox="0,0,58.14209,35.96972"><g transform="translate(-195.99738,-177.28827)"><g data-paper-data="{&quot;isPaintingLayer&quot;:true}" fill="none" fill-rule="nonzero" stroke-width="2.5" stroke-linejoin="miter" stroke-miterlimit="10" stroke-dasharray="" stroke-dashoffset="0" style="mix-blend-mode: normal"><path d="M197.24738,202.04727c0,-5.50116 4.45957,-9.96072 9.96072,-9.96072c5.50116,0 9.96072,4.45957 9.96072,9.96072c0,5.50116 -4.45957,9.96072 -9.96072,9.96072c-5.50116,0 -9.96072,-4.45957 -9.96072,-9.96072z" stroke="#eb8028" stroke-linecap="butt"/><path d="M231.99982,202.04728c0,-5.50116 4.45956,-9.96073 9.96072,-9.96073c5.50116,0 9.96073,4.45957 9.96073,9.96073c0,5.50116 -4.45957,9.96072 -9.96073,9.96072c-5.50116,0 -9.96072,-4.45956 -9.96072,-9.96072z" stroke="#eb8028" stroke-linecap="butt"/><path d="M205.55697,202.91215l12.43385,-15.15485c0,0 7.66956,-1.8437 18.26701,-2.23839c2.98386,-0.11113 7.15025,0.57398 7.15025,0.57398l-19.90082,17.92001z" stroke="#eb8028" stroke-linecap="butt"/><path d="M223.16907,202.1259l-4.56027,-14.30983" stroke="#eb8028" stroke-linecap="round"/><path d="M218.60879,187.78686l-0.78625,-4.24577l-4.24577,0.81547l9.12055,-1.72976" stroke="#eb8028" stroke-linecap="round"/><path d="M242.19642,178.53827l10.69306,2.04426" stroke="#eb8028" stroke-linecap="round"/><path d="M247.7002,179.16728l-4.40302,7.39079l0.15725,16.82584" stroke="#eb8028" stroke-linecap="round"/></g></g></svg>