<svg version="1.1" xmlns="http://www.w3.org/2000/svg" xmlns:xlink="http://www.w3.org/1999/xlink" width="26.10133" height="31.39966" viewBox="0,0,26.10133,31.39966"><g transform="translate(-225.85828,-167.86923)"><g data-paper-data="{&quot;isPaintingLayer&quot;:true}" fill-rule="nonzero" stroke-linejoin="miter" stroke-miterlimit="10" stroke-dasharray="" stroke-dashoffset="0" style="mix-blend-mode: normal"><path d="M241.09191,190.41242c-0.04383,-0.03295 -0.07763,-0.07731 -0.09793,-0.12824c-0.15924,-0.4224 -0.29219,-0.85451 -0.39802,-1.29336c-0.27478,-0.06922 -0.53191,-0.19515 -0.75497,-0.36982c-0.04314,-0.03243 -0.08685,-0.06529 -0.12899,-0.10269c-0.68441,-0.56032 -1.11741,-1.36999 -1.20344,-2.25025c-0.07393,-1.97483 1.33221,-3.53335 1.39203,-3.59861l0.18962,-0.20685l0.21845,0.17613c0.06788,0.05485 1.66985,1.36426 1.92034,3.13374c0.1866,1.31752 -0.19136,2.85369 -1.02343,3.18979c0.0938,0.37352 0.20844,0.7414 0.34308,1.10212c0.04829,0.12412 0.00859,0.26527 -0.09736,0.34598c-0.10593,0.08071 -0.25258,0.08158 -0.3594,0.00206zM241.63823,185.85535c-0.16547,-1.16864 -1.06044,-2.14811 -1.48192,-2.55236c-0.35728,0.47238 -1.09819,1.6177 -1.04907,2.94333c0.07692,0.71205 0.43268,1.36473 0.98968,1.81512c0.10831,0.09186 0.22569,0.1726 0.35008,0.24112c-0.104,-0.54222 -0.16566,-1.09174 -0.18437,-1.64352c-0.00501,-0.16492 0.12473,-0.30274 0.28964,-0.30781c0.16494,-0.00483 0.30267,0.12484 0.30769,0.28975c0.02105,0.57876 0.09136,1.15465 0.2103,1.72143c0.39801,-0.28982 0.72428,-1.40216 0.56774,-2.50723z" data-paper-data="{&quot;index&quot;:null}" fill="#eb8028" stroke="none" stroke-width="1" stroke-linecap="butt"/><path d="M226.42818,186.73718c-0.0324,0.0294 -0.0697,0.053 -0.11,0.07c-0.0807,0.0356 -0.1727,0.0356 -0.2532,0c-0.0838,-0.0303 -0.1497,-0.0962 -0.18,-0.18c-0.0171,-0.04 -0.0262,-0.083 -0.0267,-0.1266c0.0005,-0.0213 0.0028,-0.0425 0.007,-0.0633c0.0028,-0.0222 0.0094,-0.0436 0.0197,-0.0633c0.0075,-0.0213 0.0176,-0.0415 0.0299,-0.0604l0.0401,-0.0496c0.0789,-0.0778 0.1912,-0.1115 0.2999,-0.09c0.0221,0.0031 0.0434,0.0097 0.0633,0.02c0.0205,0.0067 0.0397,0.0168 0.0566,0.0299c0.0192,0.0114 0.0371,0.0249 0.0534,0.0401l0.04,0.0496c0.0126,0.0187 0.0226,0.0391 0.03,0.0604c0.0101,0.0198 0.0169,0.0411 0.02,0.0633c0.0039,0.0208 0.006,0.042 0.0067,0.0633c0.0011,0.0438 -0.008,0.087 -0.0267,0.1266c-0.017,0.0403 -0.0407,0.0776 -0.07,0.11z" data-paper-data="{&quot;index&quot;:null}" fill-opacity="0.008" fill="#eb8028" stroke="none" stroke-width="1" stroke-linecap="butt"/><path d="M251.64901,187.25946c-0.10397,0.09434 -0.22367,0.17008 -0.35299,0.22463c-0.25897,0.11424 -0.55419,0.11424 -0.81252,0c-0.26891,-0.09723 -0.48039,-0.30871 -0.57762,-0.57762c-0.05487,-0.12836 -0.08408,-0.26635 -0.08568,-0.40626c0.0016,-0.06835 0.00899,-0.13638 0.02246,-0.20313c0.00899,-0.07124 0.03016,-0.13991 0.06322,-0.20313c0.02407,-0.06835 0.05648,-0.13317 0.09595,-0.19382l0.12868,-0.15917c0.25319,-0.24966 0.61356,-0.3578 0.96238,-0.28881c0.07092,0.00995 0.13927,0.03113 0.20313,0.06418c0.06578,0.0215 0.1274,0.05391 0.18163,0.09595c0.06161,0.03658 0.11905,0.0799 0.17136,0.12868l0.12836,0.15917c0.04043,0.06001 0.07252,0.12547 0.09627,0.19382c0.03241,0.06354 0.05423,0.13189 0.06418,0.20313c0.01252,0.06675 0.01925,0.13478 0.0215,0.20313c0.00353,0.14055 -0.02567,0.27918 -0.08568,0.40626c-0.05455,0.12932 -0.13061,0.24902 -0.22463,0.35299z" data-paper-data="{&quot;index&quot;:null}" fill-opacity="0.008" fill="#eb8028" stroke="none" stroke-width="1" stroke-linecap="butt"/><path d="M243.04081,177.35998l0.91925,20.91306l-6.37028,-0.00214l-0.52413,-23.74529z" fill="none" stroke="#eb8028" stroke-width="1.5" stroke-linecap="round"/><path d="M234.15465,199.26889v-2.37474h13.02278v2.37474z" fill="#eb8028" stroke="none" stroke-width="0" stroke-linecap="butt"/><path d="M239.28716,175.92589v-7.35404c0,0 1.33541,-1.31967 1.62061,-0.34186c0.394,1.35086 0.52432,7.6959 0.52432,7.6959z" fill="#eb8028" stroke="none" stroke-width="0" stroke-linecap="butt"/></g></g></svg>