<svg version="1.1" xmlns="http://www.w3.org/2000/svg" xmlns:xlink="http://www.w3.org/1999/xlink" width="55.33629" height="35.60593" viewBox="0,0,55.33629,35.60593"><g transform="translate(-196.75893,-170.36924)"><g data-paper-data="{&quot;isPaintingLayer&quot;:true}" fill="none" fill-rule="nonzero" stroke-width="2.5" stroke-linejoin="miter" stroke-miterlimit="10" stroke-dasharray="" stroke-dashoffset="0" style="mix-blend-mode: normal"><path d="M201.33591,198.77434c0,-3.28655 2.66428,-5.95083 5.95082,-5.95083c3.28655,0 5.95082,2.66428 5.95082,5.95083c0,3.28655 -2.66428,5.95083 -5.95082,5.95083c-3.28655,0 -5.95082,-2.66428 -5.95082,-5.95083z" stroke="#eb8028" stroke-linecap="butt"/><path d="M198.32344,196.77937c-0.13506,4.44712 -0.3145,-5.12546 -0.3145,-10.37856c0,-4.39505 11.47932,-3.14502 11.47932,-3.14502c0,0 -0.3216,-10.71657 4.50157,-11.34942c8.10564,-1.06357 17.6606,-0.97597 22.19387,0.3685c4.59157,1.36176 3.33947,11.29542 3.33947,11.29542c0,0 11.32206,-1.46467 11.32206,3.61677c0,4.68894 -0.84065,14.35333 -0.78625,11.79382c-0.05506,-5.77742 -1.38849,-8.08322 -8.48289,-9.60147c-9.06006,-0.10038 -12.94235,10.02393 -12.94235,10.02393l-9.50099,-0.01613c0,0 -2.00203,-4.33358 -3.36954,-5.86328c-2.57298,-2.87814 -5.87047,-4.23963 -8.79022,-4.31993c-1.99189,-0.05478 -4.27003,0.3304 -5.99797,1.33756c-2.0797,1.2122 -1.61646,4.91408 -2.65158,6.2378z" stroke="#eb8028" stroke-linecap="butt"/><path d="M235.14484,198.77434c0,-3.28655 2.66428,-5.95083 5.95082,-5.95083c3.28655,0 5.95082,2.66428 5.95082,5.95083c0,3.28655 -2.66428,5.95083 -5.95082,5.95083c-3.28655,0 -5.95082,-2.66428 -5.95082,-5.95083z" stroke="#eb8028" stroke-linecap="butt"/><path d="M239.99491,183.5703l-7.54804,1.10076l-2.04426,-11.16481l0.629,-1.88701" stroke="#eb8028" stroke-linecap="round"/><path d="M213.89127,175.07875l-0.629,7.07629l14.46708,0.94351l-0.94351,-8.80605z" stroke="#eb8028" stroke-linecap="round"/><path d="M224.58433,187.97332l2.04426,-0.15725" stroke="#eb8028" stroke-linecap="round"/></g></g></svg>