<svg version="1.1" xmlns="http://www.w3.org/2000/svg" xmlns:xlink="http://www.w3.org/1999/xlink" width="30.14809" height="16.76042" viewBox="0,0,30.14809,16.76042"><g transform="translate(-222.57678,-171.59299)"><g data-paper-data="{&quot;isPaintingLayer&quot;:true}" fill-rule="nonzero" stroke-width="1" stroke-linejoin="miter" stroke-miterlimit="10" stroke-dasharray="" stroke-dashoffset="0" style="mix-blend-mode: normal"><path d="M240.58841,184.69581c-0.06117,-0.00109 -0.12075,-0.01906 -0.17241,-0.05179c-0.42032,-0.27745 -0.82324,-0.5809 -1.20605,-0.90819c-0.29359,0.11727 -0.60836,0.17176 -0.92421,0.15991c-0.0602,-0.00108 -0.12121,-0.00217 -0.18376,-0.00838c-0.98511,-0.05841 -1.90625,-0.50664 -2.56005,-1.24574c-1.3592,-1.73606 -1.10855,-4.06456 -1.0972,-4.16267l0.03596,-0.31101l0.31266,0.01619c0.09722,0.00514 2.40168,0.13994 3.78602,1.5749c1.03084,1.06839 1.69463,2.70381 1.16273,3.55204c0.3292,0.27613 0.67354,0.53352 1.03126,0.77135c0.12486,0.08054 0.18136,0.23408 0.13845,0.37633c-0.0429,0.14226 -0.17484,0.23901 -0.3234,0.23706zM238.09978,180.22053c-0.91431,-0.94769 -2.364,-1.24704 -3.0094,-1.33649c-0.01371,0.66066 0.06635,2.18043 0.97827,3.34611c0.53549,0.59306 1.28409,0.95 2.08214,0.99246c0.15798,0.01212 0.31689,0.00826 0.47414,-0.01123c-0.44882,-0.42189 -0.86416,-0.87808 -1.24217,-1.36441c-0.11246,-0.14573 -0.08542,-0.35518 0.06028,-0.4677c0.14588,-0.11231 0.35519,-0.08527 0.46765,0.06047c0.39779,0.50919 0.83819,0.98353 1.31658,1.41785c0.16997,-0.52235 -0.26315,-1.74098 -1.1278,-2.63707z" data-paper-data="{&quot;index&quot;:null}" fill="#eb8028" stroke="none" stroke-linecap="butt"/><path d="M241.0013,186.5007c0,0.1841 -0.1492,0.3333 -0.3333,0.3333h-5.99879c-0.18405,0 -0.33327,-0.1492 -0.33327,-0.3333c0,-0.184 0.14922,-0.3332 0.33327,-0.3332h5.99879c0.1841,0 0.3333,0.1492 0.3333,0.3332z" fill="#eb8028" stroke="none" stroke-linecap="butt"/><path d="M243.001,186.5007c0,-0.184 0.1492,-0.3332 0.3332,-0.3332h2.6662c0.1841,0 0.3333,0.1492 0.3333,0.3332c0,0.1841 -0.1492,0.3333 -0.3333,0.3333h-2.6662c-0.184,0 -0.3332,-0.1492 -0.3332,-0.3333z" fill="#eb8028" stroke="none" stroke-linecap="butt"/><path d="M247.027,186.6273c-0.0187,-0.0396 -0.0278,-0.0828 -0.0267,-0.1266c0.0007,-0.0213 0.0028,-0.0425 0.0067,-0.0633c0.0031,-0.0222 0.0099,-0.0435 0.02,-0.0633c0.0074,-0.0213 0.0174,-0.0417 0.03,-0.0604l0.04,-0.0496c0.0163,-0.0152 0.0342,-0.0287 0.0534,-0.0401c0.0169,-0.0131 0.0361,-0.0232 0.0566,-0.0299c0.0199,-0.0103 0.0412,-0.0169 0.0633,-0.02c0.1087,-0.0215 0.221,0.0122 0.2999,0.09l0.0401,0.0496c0.0123,0.0189 0.0224,0.0391 0.0299,0.0604c0.0103,0.0197 0.0169,0.0411 0.0197,0.0633c0.0042,0.0208 0.0065,0.042 0.007,0.0633c-0.0005,0.0436 -0.0096,0.0866 -0.0267,0.1266c-0.0303,0.0838 -0.0962,0.1497 -0.18,0.18c-0.0805,0.0356 -0.1725,0.0356 -0.2532,0c-0.0403,-0.017 -0.0776,-0.0406 -0.11,-0.07c-0.0293,-0.0324 -0.053,-0.0697 -0.07,-0.11z" fill="#eb8028" stroke="none" stroke-linecap="butt"/><path d="M230.74505,176.44072l6.96127,-4.262l7.00862,4.262z" fill="none" stroke="#eb8028" stroke-linecap="round"/><path d="M232.97076,176.48807l0.13459,4.16597l-5.87228,0.52074l0.52858,6.67862l20.83645,0v-6.96127l-6.67714,-0.28413v-4.02522z" fill="none" stroke="#eb8028" stroke-linecap="round"/><path d="M242.01568,177.9561l7.6716,2.69927l-7.43482,-0.09471z" fill="none" stroke="#eb8028" stroke-linecap="round"/><path d="M232.96505,180.40538l-7.40346,0.68872l7.43128,-3.30387z" data-paper-data="{&quot;index&quot;:null}" fill="none" stroke="#eb8028" stroke-linecap="round"/><path d="M233.31645,186.834h-2.6662c-0.1841,0 -0.3333,-0.1492 -0.3333,-0.3333c0,-0.184 0.1492,-0.3332 0.3333,-0.3332h2.6662c0.184,0 0.3332,0.1492 0.3332,0.3332c0,0.1841 -0.1492,0.3333 -0.3332,0.3333z" data-paper-data="{&quot;index&quot;:null}" fill="#eb8028" stroke="none" stroke-linecap="butt"/><path d="M229.55365,186.7373c-0.0324,0.0294 -0.0697,0.053 -0.11,0.07c-0.0807,0.0356 -0.1727,0.0356 -0.2532,0c-0.0838,-0.0303 -0.1497,-0.0962 -0.18,-0.18c-0.0171,-0.04 -0.0262,-0.083 -0.0267,-0.1266c0.0005,-0.0213 0.0028,-0.0425 0.007,-0.0633c0.0028,-0.0222 0.0094,-0.0436 0.0197,-0.0633c0.0075,-0.0213 0.0176,-0.0415 0.0299,-0.0604l0.0401,-0.0496c0.0789,-0.0778 0.1912,-0.1115 0.2999,-0.09c0.0221,0.0031 0.0434,0.0097 0.0633,0.02c0.0205,0.0067 0.0397,0.0168 0.0566,0.0299c0.0192,0.0114 0.0371,0.0249 0.0534,0.0401l0.04,0.0496c0.0126,0.0187 0.0226,0.0391 0.03,0.0604c0.0101,0.0198 0.0169,0.0411 0.02,0.0633c0.0039,0.0208 0.006,0.042 0.0067,0.0633c0.0011,0.0438 -0.008,0.087 -0.0267,0.1266c-0.017,0.0403 -0.0407,0.0776 -0.07,0.11z" data-paper-data="{&quot;index&quot;:null}" fill="#eb8028" stroke="none" stroke-linecap="butt"/></g></g></svg>