<svg version="1.1" xmlns="http://www.w3.org/2000/svg" xmlns:xlink="http://www.w3.org/1999/xlink" width="134.22949" height="111.32783" viewBox="0,0,134.22949,111.32783"><g transform="translate(-172.30735,-124.30181)"><g data-paper-data="{&quot;isPaintingLayer&quot;:true}" fill-rule="nonzero" stroke="#167d16" stroke-linejoin="miter" stroke-miterlimit="10" stroke-dasharray="" stroke-dashoffset="0" style="mix-blend-mode: normal"><path d="M296.61688,190.14534c-1.5944,6.00607 -10.69594,30.12606 -28.61973,40.02764c-23.05614,12.73682 -48.87194,-9.09645 -52.21814,-12.01452c-8.04324,-7.0141 -19.07303,-24.71833 -10.86223,-45.16402c4.31582,-10.74681 13.21285,-17.93983 22.06748,-23.89691c8.70573,-5.8569 19.33689,-11.1509 38.17781,-16.66609c19.04039,-5.57358 39.87732,-6.56108 39.87732,-6.56108c0,0 0.95217,16.29667 -1.02317,32.21253c-1.81062,14.58875 -6.51944,28.74791 -7.39934,32.06244z" fill="#5dc328" stroke-width="3" stroke-linecap="butt"/><path d="M216.61288,219.75921c0,0 -6.9297,7.17192 -21.47278,8.73575c-8.04236,0.8648 -20.83276,-5.30557 -20.83276,-5.30557" fill="none" stroke-width="4" stroke-linecap="round"/><path d="M222.52502,215.18564l73.40582,-79.12278" fill="none" stroke-width="3" stroke-linecap="round"/><path d="M289.07048,163.50428c0,0 -8.13029,-1.22567 -14.68836,-6.79893c-3.28521,-2.79188 -5.66403,-12.18139 -5.66403,-12.18139" fill="none" stroke-width="3" stroke-linecap="round"/><path d="M280.3807,183.39932c0,0 -11.54288,-0.75079 -21.38337,-9.9334c-7.27262,-6.78641 -9.94559,-18.42274 -9.94559,-18.42274" fill="none" stroke-width="3" stroke-linecap="round"/><path d="M268.03205,203.06567c0,0 -15.94415,-2.2058 -25.74442,-11.72516c-8.36972,-8.12982 -11.75886,-22.57662 -11.75886,-22.57662" fill="none" stroke-width="3" stroke-linecap="round"/><path d="M249.73777,216.78639c0,0 -9.52635,0.3239 -21.12044,-9.93758c-6.23213,-5.51581 -10.20852,-17.73252 -10.20852,-17.73252" fill="none" stroke-width="3" stroke-linecap="round"/></g></g></svg>