<svg version="1.1" xmlns="http://www.w3.org/2000/svg" xmlns:xlink="http://www.w3.org/1999/xlink" width="66.50652" height="45.55015" viewBox="0,0,66.50652,45.55015"><g transform="translate(-195.99738,-167.70784)"><g data-paper-data="{&quot;isPaintingLayer&quot;:true}" fill="none" fill-rule="nonzero" stroke-width="2.5" stroke-linecap="butt" stroke-linejoin="miter" stroke-miterlimit="10" stroke-dasharray="" stroke-dashoffset="0" style="mix-blend-mode: normal"><path d="M197.24739,202.04727c0,-5.50116 4.45957,-9.96072 9.96072,-9.96072c5.50116,0 9.96072,4.45957 9.96072,9.96072c0,5.50116 -4.45957,9.96072 -9.96072,9.96072c-5.50116,0 -9.96072,-4.45957 -9.96072,-9.96072z" stroke="#eb8028"/><path d="M232.2357,201.96865c0,-3.76062 5.54354,-2.78871 8.61968,-4.48392c1.42374,-0.7846 -0.24225,-5.47681 1.49829,-5.47681c5.50116,0 9.80348,4.45957 9.80348,9.96073c0,5.50116 -4.45957,9.96072 -9.96073,9.96072c-5.50116,0 -9.96072,-4.45956 -9.96072,-9.96072z" stroke="#eb8028"/><path d="M241.11161,174.17251c0,0 -3.72195,-0.56523 -2.67551,-3.71051c0.94297,-2.83427 4.39722,-0.79309 4.39722,-0.79309l16.56234,7.87854c0,0 2.81299,0.52751 1.51697,3.82992c-0.51726,1.31803 -3.23868,0.67368 -3.23868,0.67368z" stroke="#eb8028"/><path d="M245.02694,201.96865c0,1.6501 -1.26726,2.98777 -2.83052,2.98777c-1.56325,0 -2.83052,-1.33767 -2.83052,-2.98777c0,-1.6501 1.26726,-2.98777 2.83052,-2.98777c1.56325,0 2.83052,1.33767 2.83052,2.98777z" stroke="#eb8028"/><path d="M240.67178,198.87082l6.05742,-20.67424l4.22539,1.23801l-6.05742,20.67424z" stroke="#eb8028"/><path d="M202.09745,190.80384c0,0 -1.3089,-4.75858 -1.28235,-5.47556c0.01136,-0.30684 5.05637,0.28628 5.05637,0.28628c0,0 11.29721,-0.33617 17.4522,-0.09095c5.82788,0.23219 12.11096,-0.53806 12.11096,-0.53806c0,0 0.40105,4.34481 1.90838,5.78912c1.24857,1.19637 3.60168,-0.58451 4.00742,0.40446c0.75915,1.85042 -0.88377,6.07199 -0.88377,6.07199c0,0 -14.33079,2.77056 -20.54989,1.44794c-2.14661,-0.45652 -1.97123,-4.73086 -4.5265,-6.44739c-3.59919,-2.41779 -13.29282,-1.44784 -13.29282,-1.44784z" stroke="#eb8028"/><path d="M201.3112,184.82831l2.67326,-4.56027c0,0 17.57506,-0.29404 23.2918,1.47612c3.64237,1.12784 7.81524,1.94641 7.37212,1.9834c-2.96961,0.24787 -33.33718,1.10076 -33.33718,1.10076z" stroke="#eb8028"/></g></g></svg>