<svg version="1.1" xmlns="http://www.w3.org/2000/svg" xmlns:xlink="http://www.w3.org/1999/xlink" width="26.10132" height="16.81148" viewBox="0,0,26.10132,16.81148"><g transform="translate(-225.85828,-171.59299)"><g data-paper-data="{&quot;isPaintingLayer&quot;:true}" fill-rule="nonzero" stroke-width="1" stroke-linejoin="miter" stroke-miterlimit="10" stroke-dasharray="" stroke-dashoffset="0" style="mix-blend-mode: normal"><path d="M240.58841,184.69581c-0.06117,-0.00109 -0.12074,-0.01906 -0.17241,-0.05179c-0.42032,-0.27746 -0.82324,-0.58091 -1.20606,-0.9082c-0.29359,0.11728 -0.60835,0.17176 -0.92421,0.15991c-0.0602,-0.00107 -0.12121,-0.00216 -0.18376,-0.00838c-0.98512,-0.05841 -1.90625,-0.50665 -2.56005,-1.24575c-1.35919,-1.73606 -1.10855,-4.06455 -1.0972,-4.16267l0.03597,-0.311l0.31266,0.01619c0.09723,0.00514 2.40168,0.13994 3.78602,1.5749c1.03084,1.06839 1.69463,2.70381 1.16273,3.55204c0.3292,0.27613 0.67354,0.53352 1.03126,0.77135c0.12486,0.08055 0.18136,0.23408 0.13845,0.37634c-0.0429,0.14226 -0.17484,0.23901 -0.3234,0.23706zM238.09978,180.22053c-0.91431,-0.94769 -2.36399,-1.24704 -3.0094,-1.33649c-0.0137,0.66066 0.06635,2.18044 0.97827,3.34612c0.53549,0.59306 1.28409,0.95 2.08214,0.99246c0.15798,0.01212 0.31689,0.00826 0.47413,-0.01123c-0.44882,-0.42189 -0.86416,-0.87808 -1.24217,-1.36442c-0.11246,-0.14574 -0.08541,-0.35518 0.06028,-0.46769c0.14588,-0.11231 0.35519,-0.08527 0.46765,0.06046c0.39778,0.50919 0.83819,0.98354 1.31658,1.41785c0.16997,-0.52235 -0.26316,-1.74097 -1.1278,-2.63707z" data-paper-data="{&quot;index&quot;:null}" fill="#eb8028" stroke="none" stroke-linecap="butt"/><path d="M241.0013,186.5007c0,0.1841 -0.1492,0.3333 -0.3333,0.3333h-5.99879c-0.18405,0 -0.33327,-0.1492 -0.33327,-0.3333c0,-0.184 0.14922,-0.3332 0.33327,-0.3332h5.99879c0.1841,0 0.3333,0.1492 0.3333,0.3332z" fill="#eb8028" stroke="none" stroke-linecap="butt"/><path d="M230.74505,176.44072l6.96127,-4.262l7.00862,4.262z" fill="none" stroke="#eb8028" stroke-linecap="round"/><path d="M232.97077,176.48808l-0.10219,11.41137l9.43124,-0.09339l-0.37884,-11.22327z" fill="none" stroke="#eb8028" stroke-linecap="round"/><path d="M226.42818,186.73718c-0.0324,0.0294 -0.0697,0.053 -0.11,0.07c-0.0807,0.0356 -0.1727,0.0356 -0.2532,0c-0.0838,-0.0303 -0.1497,-0.0962 -0.18,-0.18c-0.0171,-0.04 -0.0262,-0.083 -0.0267,-0.1266c0.0005,-0.0213 0.0028,-0.0425 0.007,-0.0633c0.0028,-0.0222 0.0094,-0.0436 0.0197,-0.0633c0.0075,-0.0213 0.0176,-0.0415 0.0299,-0.0604l0.0401,-0.0496c0.0789,-0.0778 0.1912,-0.1115 0.2999,-0.09c0.0221,0.0031 0.0434,0.0097 0.0633,0.02c0.0205,0.0067 0.0397,0.0168 0.0566,0.0299c0.0192,0.0114 0.0371,0.0249 0.0534,0.0401l0.04,0.0496c0.0126,0.0187 0.0226,0.0391 0.03,0.0604c0.0101,0.0198 0.0169,0.0411 0.02,0.0633c0.0039,0.0208 0.006,0.042 0.0067,0.0633c0.0011,0.0438 -0.008,0.087 -0.0267,0.1266c-0.017,0.0403 -0.0407,0.0776 -0.07,0.11z" data-paper-data="{&quot;index&quot;:null}" fill-opacity="0.008" fill="#eb8028" stroke="none" stroke-linecap="butt"/><path d="M251.64901,187.25946c-0.10397,0.09434 -0.22367,0.17008 -0.35299,0.22463c-0.25897,0.11424 -0.55419,0.11424 -0.81252,0c-0.26891,-0.09723 -0.48039,-0.30871 -0.57762,-0.57762c-0.05487,-0.12836 -0.08408,-0.26635 -0.08568,-0.40626c0.0016,-0.06835 0.00899,-0.13638 0.02246,-0.20313c0.00899,-0.07124 0.03016,-0.13991 0.06322,-0.20313c0.02407,-0.06835 0.05648,-0.13317 0.09595,-0.19382l0.12868,-0.15917c0.25319,-0.24966 0.61356,-0.3578 0.96238,-0.28881c0.07092,0.00995 0.13927,0.03113 0.20313,0.06418c0.06578,0.0215 0.1274,0.05391 0.18163,0.09595c0.06161,0.03658 0.11905,0.0799 0.17136,0.12868l0.12836,0.15917c0.04043,0.06001 0.07252,0.12547 0.09627,0.19382c0.03241,0.06354 0.05423,0.13189 0.06418,0.20313c0.01252,0.06675 0.01925,0.13478 0.0215,0.20313c0.00353,0.14055 -0.02567,0.27918 -0.08568,0.40626c-0.05455,0.12932 -0.13061,0.24902 -0.22463,0.35299z" data-paper-data="{&quot;index&quot;:null}" fill-opacity="0.008" fill="#eb8028" stroke="none" stroke-linecap="butt"/></g></g></svg>