<svg version="1.1" xmlns="http://www.w3.org/2000/svg" xmlns:xlink="http://www.w3.org/1999/xlink" width="112.96335" height="62.03133" viewBox="0,0,112.96335,62.03133"><g transform="translate(-172.15275,-169.68056)"><g data-paper-data="{&quot;isPaintingLayer&quot;:true}" fill="none" fill-rule="nonzero" stroke-linejoin="miter" stroke-miterlimit="10" stroke-dasharray="" stroke-dashoffset="0" style="mix-blend-mode: normal"><path d="M278.36411,196.22899c-1.11774,2.37121 -8.08024,5.21605 -15.73925,6.60504c-9.85644,1.7875 -20.13423,1.94024 -20.13423,1.94024l-0.29061,23.27942c0,0 -17.50803,-23.09728 -19.10959,-23.09728c-25.9239,0 -37.03257,-0.1519 -48.51189,-1.02213c-2.93931,-0.22283 -0.24871,-8.06094 6.73949,-9.98926c4.21953,-1.16433 7.03548,0.747 11.14201,-1.69454c9.00737,-5.35533 19.58673,-7.73668 30.78763,-7.73668c14.38469,0 31.1698,1.1832 42.17414,0.8519c3.39361,-0.10217 7.47666,-7.32435 8.77725,-11.89334c1.35018,-4.74321 8.34474,-1.70874 8.56242,-0.00843c0.58874,4.59883 3.77947,5.41843 -4.39739,22.76507z" stroke="#eb8028" stroke-width="2.5" stroke-linecap="butt"/><path d="M214.83477,194.10611l27.67615,33.96618l-0.629,-33.33718" stroke="#eb8028" stroke-width="2.5" stroke-linecap="round"/><path d="M189.67464,193.4771c0,0 17.67278,0.755 20.95136,-0.47721c3.58443,-1.34717 1.85001,-7.54258 1.85001,-7.54258" stroke="#eb8028" stroke-width="2.5" stroke-linecap="round"/><path d="M220.4958,191.35422c0,1.25929 -0.52803,2.28014 -1.17938,2.28014c-0.65135,0 -1.17938,-1.02085 -1.17938,-2.28014c0,-1.25929 0.52803,-2.28014 1.17938,-2.28014c0.65135,0 1.17938,1.02085 1.17938,2.28014z" stroke="#eb8028" stroke-width="1.5" stroke-linecap="butt"/><path d="M224.58433,191.35421c0,1.25929 -0.52803,2.28014 -1.17938,2.28014c-0.65135,0 -1.17938,-1.02085 -1.17938,-2.28014c0,-1.25929 0.52802,-2.28014 1.17938,-2.28014c0.65135,0 1.17938,1.02085 1.17938,2.28014z" stroke="#eb8028" stroke-width="1.5" stroke-linecap="butt"/><path d="M228.98735,191.35421c0,1.25929 -0.52803,2.28014 -1.17938,2.28014c-0.65135,0 -1.17938,-1.02085 -1.17938,-2.28014c0,-1.25929 0.52802,-2.28014 1.17938,-2.28014c0.65135,0 1.17938,1.02085 1.17938,2.28014z" stroke="#eb8028" stroke-width="1.5" stroke-linecap="butt"/><path d="M233.07587,191.35421c0,1.25929 -0.52803,2.28014 -1.17938,2.28014c-0.65135,0 -1.17938,-1.02085 -1.17938,-2.28014c0,-1.25929 0.52803,-2.28014 1.17938,-2.28014c0.65135,0 1.17938,1.02085 1.17938,2.28014z" stroke="#eb8028" stroke-width="1.5" stroke-linecap="butt"/><path d="M237.4789,191.35421c0,1.25929 -0.52803,2.28014 -1.17938,2.28014c-0.65135,0 -1.17938,-1.02085 -1.17938,-2.28014c0,-1.25929 0.52802,-2.28014 1.17938,-2.28014c0.65135,0 1.17938,1.02085 1.17938,2.28014z" stroke="#eb8028" stroke-width="1.5" stroke-linecap="butt"/><path d="M241.56742,191.35421c0,1.25929 -0.52803,2.28014 -1.17938,2.28014c-0.65135,0 -1.17938,-1.02085 -1.17938,-2.28014c0,-1.25929 0.52803,-2.28014 1.17938,-2.28014c0.65135,0 1.17938,1.02085 1.17938,2.28014z" stroke="#eb8028" stroke-width="1.5" stroke-linecap="butt"/><path d="M245.97044,191.35421c0,1.25929 -0.52803,2.28014 -1.17938,2.28014c-0.65135,0 -1.17938,-1.02085 -1.17938,-2.28014c0,-1.25929 0.52803,-2.28014 1.17938,-2.28014c0.65135,0 1.17938,1.02085 1.17938,2.28014z" stroke="#eb8028" stroke-width="1.5" stroke-linecap="butt"/><path d="M250.05896,191.35421c0,1.25929 -0.52803,2.28014 -1.17938,2.28014c-0.65135,0 -1.17938,-1.02085 -1.17938,-2.28014c0,-1.25929 0.52803,-2.28014 1.17938,-2.28014c0.65135,0 1.17938,1.02085 1.17938,2.28014z" stroke="#eb8028" stroke-width="1.5" stroke-linecap="butt"/><path d="M237.4789,191.35422c0,1.25929 -0.52803,2.28014 -1.17938,2.28014c-0.65135,0 -1.17938,-1.02085 -1.17938,-2.28014c0,-1.25929 0.52803,-2.28014 1.17938,-2.28014c0.65135,0 1.17938,1.02085 1.17938,2.28014z" stroke="#eb8028" stroke-width="1.5" stroke-linecap="butt"/><path d="M263.73978,191.35422c0,1.25929 -0.52803,2.28014 -1.17939,2.28014c-0.65135,0 -1.17938,-1.02085 -1.17938,-2.28014c0,-1.25929 0.52802,-2.28014 1.17938,-2.28014c0.65136,0 1.17939,1.02085 1.17939,2.28014z" stroke="#eb8028" stroke-width="1.5" stroke-linecap="butt"/><path d="M258.70776,191.35421c0,1.25929 -0.52803,2.28014 -1.17938,2.28014c-0.65136,0 -1.17938,-1.02085 -1.17938,-2.28014c0,-1.25929 0.52802,-2.28014 1.17938,-2.28014c0.65136,0 1.17938,1.02085 1.17938,2.28014z" stroke="#eb8028" stroke-width="1.5" stroke-linecap="butt"/><path d="M254.30473,191.35421c0,1.25929 -0.52803,2.28014 -1.17939,2.28014c-0.65135,0 -1.17938,-1.02085 -1.17938,-2.28014c0,-1.25929 0.52802,-2.28014 1.17938,-2.28014c0.65135,0 1.17939,1.02085 1.17939,2.28014z" stroke="#eb8028" stroke-width="1.5" stroke-linecap="butt"/><path d="M279.90099,180.40153c-0.29058,1.62431 -1.53105,2.7613 -2.77065,2.53954c-1.23961,-0.22176 -2.00894,-1.7183 -1.71835,-3.34261c0.29058,-1.62431 1.53105,-2.7613 2.77065,-2.53954c1.23961,0.22176 2.00894,1.7183 1.71835,3.34261z" stroke="#eb8028" stroke-width="2.5" stroke-linecap="butt"/></g></g></svg>